<?xml version="1.0" standalone="no"?>
<!DOCTYPE svg PUBLIC "-//W3C//DTD SVG 20010904//EN"
 "http://www.w3.org/TR/2001/REC-SVG-20010904/DTD/svg10.dtd">
<svg version="1.0" xmlns="http://www.w3.org/2000/svg"
 width="1200.000000pt" height="1200.000000pt" viewBox="0 0 1200.000000 1200.000000"
 preserveAspectRatio="xMidYMid meet">
<metadata>
Created by potrace 1.11, written by Peter Selinger 2001-2013
</metadata>
<g transform="translate(0.000000,1200.000000) scale(0.100000,-0.100000)"
fill="#000000" stroke="none">
<path d="M0 6000 l0 -6000 6000 0 6000 0 0 6000 0 6000 -6000 0 -6000 0 0
-6000z m7158 1208 c3 -16 -33 -73 -152 -238 -30 -41 -75 -104 -100 -140 -25
-36 -70 -99 -100 -140 -30 -41 -75 -104 -100 -140 -25 -36 -70 -99 -100 -140
-30 -41 -75 -104 -100 -140 -25 -36 -70 -99 -100 -140 -30 -41 -72 -100 -93
-130 -21 -30 -57 -80 -80 -112 -24 -31 -43 -59 -43 -62 0 -3 209 -6 465 -6
l465 0 0 -23 c0 -15 -41 -68 -122 -158 -68 -74 -202 -222 -298 -329 -96 -106
-200 -221 -231 -254 -31 -34 -73 -81 -95 -106 -21 -25 -64 -72 -95 -105 -31
-33 -72 -78 -90 -100 -19 -22 -62 -69 -95 -105 -34 -36 -75 -81 -90 -100 -16
-19 -59 -66 -96 -105 -36 -38 -77 -83 -90 -100 -13 -16 -56 -64 -97 -107 -40
-42 -80 -87 -89 -99 -9 -13 -51 -59 -93 -104 -43 -44 -88 -93 -101 -110 -13
-16 -56 -64 -97 -107 -40 -42 -80 -87 -89 -99 -8 -12 -52 -60 -98 -108 -46
-47 -84 -89 -84 -93 0 -3 -43 -51 -95 -105 -52 -54 -95 -102 -95 -106 0 -14
-69 -77 -85 -77 -8 0 -15 9 -15 20 0 11 182 409 405 884 223 475 405 867 405
870 0 3 -191 6 -424 6 -349 0 -426 2 -435 14 -12 14 -11 19 30 113 11 24 19
46 19 51 0 5 9 27 20 50 11 22 20 45 20 50 0 4 9 27 20 50 11 22 20 45 20 50
0 4 9 27 20 50 11 22 20 46 20 52 0 5 4 18 10 28 18 33 656 1645 674 1705 5
16 49 17 788 15 726 -3 783 -4 786 -20z"/>
</g>
</svg>
