<?xml version="1.0" encoding="utf-8"?>
<!-- Generator: Adobe Illustrator 19.1.0, SVG Export Plug-In . SVG Version: 6.00 Build 0)  -->
<svg version="1.1" id="Layer_1" xmlns="http://www.w3.org/2000/svg" xmlns:xlink="http://www.w3.org/1999/xlink" x="0px" y="0px"
	 viewBox="-115 267.2 380.6 258.8" style="enable-background:new -115 267.2 380.6 258.8;" xml:space="preserve">
<style type="text/css">
	.st0{fill:#ED0050;}
</style>
<g>
	<path class="st0" d="M263.4,330.7l-41-42.8l17.8-11.4l1-8.9l-8.2-0.4l-21.5,15.4h-26.8l-16.4-10l-5.9,1.2l0.1,6.5l10.6,11.7
		l-1.4,6.1L47.4,311.6L-81.5,308l-13.9,5.8l-10.2,13l-5.3,30.4l-0.9,21.9l-3.2,20.4l0.9,20.3l3.6,0.7l5.2-5.7l4.2-19.1l-3.4-26.5
		l1.2-0.2l8.1,40.3l-5.5,34.9l5,69.8l0.5,7.7l4.9,4.2h21.6l7-2.1l-19.4-31.5l9.6-40h5l17.6,53.2l9.1,13.7l4.5,2.7h23.9l3.1-3.8
		L-29,505.4l-14-43.2l3.5-7l8.2,0.8l5.2,12.7l7.5-12.3l7.3,12.4l6.1-13.5l18.1-13.9l64.1-6.2l10.8,13.2l9.1,64.4l4.8,9.3h21.9
		l2.4-3.5l-13.3-18.5l-1.6-35.2l7.2,4l7.6,23.4l9.6,30.4l4.3,3.3h19.6l1.6-4.4l-5.7-5.3l-18.6-36.1l4.3-37.8l20.7-15.3l30.1-56
		l34.7-16l31.9-3.6l2.7-3l4.5-12.6L263.4,330.7z"/>
</g>
</svg>
