<?xml version="1.0" encoding="utf-8"?>
<!-- Generator: Adobe Illustrator 19.1.0, SVG Export Plug-In . SVG Version: 6.00 Build 0)  -->
<svg version="1.1" id="Layer_1" xmlns="http://www.w3.org/2000/svg" xmlns:xlink="http://www.w3.org/1999/xlink" x="0px" y="0px"
	 viewBox="-296 391.5 17.2 10.5" style="enable-background:new -296 391.5 17.2 10.5;" xml:space="preserve">
<style type="text/css">
	.st0{clip-path:url(#SVGID_2_);fill:#ED0050;}
</style>
<g>
	<g>
		<g>
			<defs>
				<rect id="SVGID_1_" x="-296" y="391.5" width="18" height="11"/>
			</defs>
			<clipPath id="SVGID_2_">
				<use xlink:href="#SVGID_1_"  style="overflow:visible;"/>
			</clipPath>
			<path class="st0" d="M-288.9,395c-0.4,0.6-0.6,1.4-0.8,2.1c-0.6-1.1-1.5-2.1-2.3-2.5c0.6,1.2,1.5,2.6,2.2,3.5c0,0.1,0,0.3,0,0.4
				v0.1l0,0l0,0l0,0v0.1v0.1v0.1v0.1l0,0v0.3c0,0.4,0,0.7,0,1.1c-1.1-1-3-1.9-4.3-1.9c1.4,0.9,3.3,1.9,4.3,2.3
				c0,0.3,0.1,0.5,0.1,0.8c-3.9,1.6-4.4-1.6-6.3-4c1.2-0.4,2.3-0.6,3.2-0.6c-0.3-1.2-0.2-2.7-0.4-4.1
				C-291,393.2-289.6,394-288.9,395L-288.9,395z M-278.8,391.5c-1.9,5.3-0.5,11.4-9.8,10C-289.5,395.6-287.4,391.4-278.8,391.5
				L-278.8,391.5z M-281.4,394.1c-2.6,0.7-5.8,4.1-6.5,6.7C-286.7,400-283.6,396.8-281.4,394.1L-281.4,394.1z"/>
		</g>
	</g>
</g>
</svg>
